<?xml version="1.0" encoding="utf-8"?>
<!-- Generator: Adobe Illustrator 24.0.2, SVG Export Plug-In . SVG Version: 6.00 Build 0)  -->
<svg version="1.1" id="Camada_1" xmlns="http://www.w3.org/2000/svg" xmlns:xlink="http://www.w3.org/1999/xlink" x="0px" y="0px"
	 viewBox="0 0 841.89 595.28" style="enable-background:new 0 0 841.89 595.28;" xml:space="preserve">
<style type="text/css">
	.st0{fill-rule:evenodd;clip-rule:evenodd;fill:#305373;}
	.st1{fill:#FAD15F;}
	.st2{fill:#CB5337;}
	.st3{fill-rule:evenodd;clip-rule:evenodd;fill:#FAD15F;}
	.st4{fill:#305373;}
</style>
<g>
	<g>
		<path class="st0" d="M323.64,254.62c2.45-2.02,4.22-3.26,5.75-4.75c12.58-12.26,27.93-18.06,45.19-18.77
			c34.34-1.4,59.33,14.02,74.82,44.12c15.56,30.22,16.93,61.75,3.03,92.87c-12.02,26.91-32.64,44.29-62.48,48.56
			c-18.75,2.69-36.96-0.13-53.18-10.45c-5.89-3.74-10.62-9.29-15.88-14.01c-0.38-0.34-0.77-0.7-1.72-1.57c0,7.63,0,14.63,0,21.72
			c-18.1,0-35.73,0-53.53,0c0-89.21,0-178.17,0-267.25c19.35,0,38.52,0,58.02,0C323.64,181.41,323.64,217.5,323.64,254.62z
			 M364.19,278.59c-2.39,0.2-4.81,0.21-7.17,0.63c-17.63,3.15-28.34,14.11-33.59,30.68c-8.72,27.53,8.67,57.5,37.71,59.09
			c15.61,0.85,28.24-4.61,36.68-18.19c7.02-11.31,8.57-23.72,6.37-36.6C400.65,293.48,385.72,278.36,364.19,278.59z"/>
		<path class="st1" d="M497.55,121.32c10.67,0.96,11.22-3.5,12.76,31.81c-18.2,0.18-35.82-1.57-53.52-3.23
			c-5.82-0.55-11.37-1.06-17.08-1.51c-1.91-0.27-0.91,2.82-1.68,4.09c-4.77,25.21-7.23,63.66,2.52,95.36
			c3.45,10.24,10.62,14.78,19.09,34.1c3.86,10.33,1.63-9.31,2.18-52.74h68.35v15.65c25.08-22.72,52.39-26.93,82.38-11.76
			c6.01-77.41-74-144.61-155.6-139.55c-4.39,7.39-7.54,15.57-10.4,24.12C464.06,119.58,480.03,120.05,497.55,121.32z"/>
		<path class="st2" d="M461.88,70.44c-72.34,8.56-144.11,74.36-132.02,171c2.22-1.88,13.86-6.62,15.1-11.38
			c-0.13-36.05,8.8-67.28,35.12-95.84c8.46-9.11,13.48-19.35,20.52-29.55c4.69,4.22,5.31,9.8,42.04-11.94
			c9.92-5.51,16.74-19.07,29.44-16.63c-6,4.67-10.6,10.12-14.33,16.11c55.47-7.76,129.81,31.09,148.52,83.73
			c7.6,19.99,8.06,34.83,9.37,58.71c2.75,4.6,6.73,5.4,13.34,14.17C648.31,150.95,566.89,58.4,461.88,70.44z"/>
		<path class="st0" d="M199.19,412.34c0-58.74,0-117.23,0-175.75c19.3,0,38.55,0,57.87,0c0,58.8,0,117.17,0,175.75
			C237.71,412.34,218.67,412.34,199.19,412.34z"/>
		<path class="st3" d="M414.51,232.5c-22.42-9.91-44.37-10.96-67.02-2.27c-0.82-36.87,10.55-68.64,35.24-95.8
			c8.87,5.54,19.03,7.5,29.36,9.72c-3.27,14.58-6.28,29.15-6.11,44.18C406.14,203.31,409.62,217.64,414.51,232.5z"/>
		<path class="st0" d="M261.57,180.3c-0.05,17.61-15.64,31.84-34.8,31.74c-17.78-0.08-32.11-14.78-31.91-32.98
			c0.22-19.26,15.55-30.76,33.97-31.12C246.56,147.61,261.62,162.82,261.57,180.3z"/>
		<path class="st3" d="M435.58,100.12c-3.14,4.58-5.65,8.39-8.36,12.05c-0.58,0.79-1.96,1.6-2.84,1.47
			c-3.63-0.54-7.2-1.44-10.91-2.66C419.68,105.66,427.2,103.18,435.58,100.12z"/>
		<g>
			<path class="st4" d="M226.18,484.8h1.45v15.59h-1.45V484.8z"/>
			<path class="st4" d="M249.48,499.38c-0.91,0.51-1.85,0.88-2.83,1.09c-0.98,0.21-1.97,0.32-2.98,0.32c-1.19,0-2.28-0.2-3.27-0.6
				c-0.99-0.4-1.84-0.97-2.55-1.7c-0.7-0.73-1.26-1.59-1.65-2.6c-0.4-1.01-0.59-2.1-0.59-3.29c0-1.19,0.2-2.28,0.59-3.28
				c0.4-1,0.95-1.86,1.65-2.59c0.71-0.73,1.55-1.3,2.55-1.71c0.99-0.41,2.08-0.62,3.27-0.62c2.32,0,4.19,0.72,5.61,2.16l-1.06,1.1
				c-0.24-0.28-0.53-0.54-0.87-0.78c-0.34-0.24-0.72-0.45-1.12-0.62c-0.4-0.17-0.83-0.3-1.27-0.4c-0.44-0.09-0.87-0.14-1.3-0.14
				c-1.01,0-1.93,0.18-2.74,0.53c-0.81,0.35-1.51,0.84-2.08,1.45c-0.57,0.62-1.01,1.34-1.32,2.18c-0.31,0.84-0.46,1.74-0.46,2.71
				c0,0.97,0.16,1.87,0.46,2.71c0.31,0.84,0.75,1.56,1.32,2.18c0.57,0.62,1.27,1.1,2.08,1.45c0.81,0.35,1.73,0.53,2.74,0.53
				c0.84,0,1.62-0.07,2.36-0.2c0.73-0.13,1.4-0.37,2-0.73v-5.24h-3.74v-1.32h5.2V499.38z"/>
			<path class="st4" d="M258.46,484.8h4.09c0.21,0,0.49,0.01,0.84,0.02c0.35,0.02,0.73,0.06,1.14,0.13
				c0.41,0.08,0.83,0.19,1.26,0.35c0.42,0.16,0.81,0.4,1.14,0.71c0.34,0.31,0.62,0.7,0.84,1.17c0.22,0.47,0.33,1.04,0.33,1.72
				c0,0.75-0.13,1.37-0.39,1.85c-0.26,0.48-0.58,0.88-0.97,1.18c-0.39,0.3-0.82,0.53-1.29,0.67c-0.47,0.15-0.92,0.25-1.34,0.31
				l4.54,7.49H267l-4.38-7.4h-2.71v7.4h-1.45V484.8z M259.91,491.67H263c0.76,0,1.38-0.09,1.86-0.29c0.48-0.19,0.85-0.42,1.11-0.7
				c0.26-0.28,0.44-0.58,0.54-0.9c0.09-0.32,0.14-0.62,0.14-0.88c0-0.27-0.05-0.56-0.14-0.88c-0.1-0.32-0.28-0.62-0.54-0.9
				c-0.26-0.28-0.63-0.51-1.11-0.7c-0.48-0.19-1.1-0.28-1.86-0.28h-3.08V491.67z"/>
			<path class="st4" d="M276.23,484.8h9.53v1.32h-8.08v5.55h7.57v1.32h-7.57v6.08h8.43v1.32h-9.89V484.8z"/>
			<path class="st4" d="M300.34,495.81c0,0.47-0.03,0.99-0.1,1.56c-0.07,0.57-0.24,1.11-0.53,1.62c-0.28,0.51-0.71,0.93-1.28,1.28
				s-1.35,0.52-2.37,0.52c-1.14,0-2.05-0.29-2.72-0.87c-0.67-0.58-1.11-1.35-1.33-2.32l1.45-0.27c0.35,1.42,1.22,2.14,2.6,2.14
				c0.51,0,0.95-0.08,1.31-0.25c0.36-0.17,0.65-0.4,0.87-0.69c0.22-0.3,0.38-0.64,0.48-1.05c0.1-0.41,0.15-0.84,0.15-1.31V484.8
				h1.45V495.81z"/>
			<path class="st4" d="M314.1,484.8h1.5l6.56,15.59h-1.63l-1.69-4.14h-8.26l-1.76,4.14h-1.52L314.1,484.8z M314.78,486.39
				l-3.63,8.54h7.15L314.78,486.39z"/>
			<path class="st4" d="M339.55,484.8h4.49c0.59,0,1.18,0.05,1.78,0.14c0.6,0.1,1.14,0.3,1.62,0.59c0.48,0.3,0.87,0.72,1.17,1.26
				c0.3,0.54,0.45,1.24,0.45,2.13c0,0.79-0.24,1.48-0.71,2.07c-0.47,0.59-1.17,0.98-2.09,1.17v0.05c0.51,0.04,0.98,0.16,1.41,0.36
				c0.43,0.2,0.79,0.46,1.1,0.79c0.31,0.33,0.55,0.72,0.71,1.18c0.17,0.45,0.26,0.95,0.26,1.5c0,0.89-0.17,1.63-0.52,2.19
				c-0.34,0.56-0.78,1.01-1.3,1.33c-0.52,0.32-1.09,0.54-1.7,0.66c-0.61,0.12-1.18,0.18-1.71,0.18h-4.97V484.8z M341,491.54h3.02
				c0.75,0,1.36-0.09,1.83-0.28c0.47-0.18,0.84-0.41,1.1-0.67c0.26-0.27,0.44-0.55,0.53-0.85s0.13-0.58,0.13-0.83
				c0-0.54-0.09-0.99-0.28-1.35c-0.18-0.36-0.43-0.65-0.74-0.86c-0.31-0.21-0.67-0.36-1.08-0.45c-0.41-0.09-0.84-0.13-1.3-0.13H341
				V491.54z M341,499.07h3.32c0.85,0,1.54-0.1,2.06-0.31c0.52-0.21,0.92-0.46,1.2-0.77c0.28-0.31,0.46-0.63,0.56-0.98
				c0.09-0.35,0.14-0.66,0.14-0.94c0-0.57-0.11-1.06-0.33-1.47c-0.22-0.41-0.51-0.75-0.86-1c-0.35-0.26-0.75-0.44-1.2-0.56
				s-0.9-0.18-1.35-0.18H341V499.07z"/>
			<path class="st4" d="M362.91,484.8h1.5l6.56,15.59h-1.63l-1.69-4.14h-8.26l-1.76,4.14h-1.52L362.91,484.8z M363.59,486.39
				l-3.63,8.54h7.15L363.59,486.39z"/>
			<path class="st4" d="M379.89,486.13h-5.33v-1.32h12.11v1.32h-5.33v14.27h-1.45V486.13z"/>
			<path class="st4" d="M393.78,484.8h1.45v15.59h-1.45V484.8z"/>
			<path class="st4" d="M404.64,497.51c0.38,0.66,0.88,1.15,1.49,1.48c0.61,0.32,1.3,0.48,2.08,0.48c0.49,0,0.94-0.07,1.37-0.22
				c0.43-0.15,0.8-0.35,1.11-0.62c0.31-0.27,0.56-0.58,0.75-0.96c0.18-0.37,0.27-0.8,0.27-1.27c0-0.54-0.11-0.99-0.34-1.34
				c-0.23-0.35-0.53-0.64-0.91-0.87s-0.81-0.42-1.29-0.58c-0.48-0.16-0.97-0.32-1.48-0.48c-0.51-0.16-1-0.35-1.48-0.55
				c-0.48-0.21-0.91-0.47-1.29-0.8c-0.38-0.33-0.69-0.74-0.91-1.24c-0.23-0.5-0.34-1.12-0.34-1.85c0-0.69,0.13-1.3,0.41-1.84
				c0.27-0.53,0.64-0.98,1.1-1.34c0.46-0.36,0.99-0.63,1.6-0.81s1.23-0.27,1.89-0.27c0.85,0,1.64,0.15,2.37,0.45s1.35,0.8,1.88,1.51
				l-1.25,0.9c-0.37-0.52-0.8-0.9-1.29-1.16c-0.49-0.26-1.08-0.38-1.75-0.38c-0.47,0-0.92,0.06-1.34,0.19
				c-0.42,0.12-0.8,0.31-1.11,0.55c-0.32,0.24-0.57,0.55-0.76,0.91c-0.19,0.37-0.29,0.8-0.29,1.3c0,0.78,0.2,1.38,0.6,1.8
				c0.4,0.42,0.89,0.75,1.49,0.99c0.59,0.24,1.24,0.45,1.94,0.64c0.7,0.18,1.34,0.43,1.94,0.74c0.6,0.31,1.09,0.74,1.49,1.29
				c0.4,0.55,0.6,1.31,0.6,2.28c0,0.7-0.13,1.33-0.4,1.87s-0.62,1-1.07,1.38c-0.45,0.37-0.96,0.66-1.55,0.85
				c-0.59,0.19-1.2,0.28-1.83,0.28c-1.03,0-1.97-0.18-2.84-0.54c-0.87-0.36-1.61-0.96-2.23-1.82L404.64,497.51z"/>
			<path class="st4" d="M424.63,486.13h-5.33v-1.32h12.11v1.32h-5.33v14.27h-1.45V486.13z"/>
			<path class="st4" d="M441.8,484.8h1.5l6.56,15.59h-1.63l-1.69-4.14h-8.26l-1.76,4.14H435L441.8,484.8z M442.48,486.39l-3.63,8.54
				h7.15L442.48,486.39z"/>
			<path class="st4" d="M467.26,484.8h1.87l9.49,13.65h0.04V484.8h1.45v15.59h-1.87l-9.49-13.65h-0.05v13.65h-1.45V484.8z"/>
			<path class="st4" d="M493.87,484.8h1.5l6.56,15.59h-1.63l-1.69-4.14h-8.26l-1.76,4.14h-1.52L493.87,484.8z M494.56,486.39
				l-3.63,8.54h7.15L494.56,486.39z"/>
			<path class="st4" d="M521.73,497.95c-0.75,1.01-1.62,1.74-2.6,2.18s-2.05,0.66-3.19,0.66c-1.19,0-2.28-0.2-3.27-0.6
				c-0.99-0.4-1.84-0.97-2.55-1.7c-0.7-0.73-1.26-1.59-1.65-2.6c-0.4-1.01-0.59-2.1-0.59-3.29c0-1.19,0.2-2.28,0.59-3.28
				c0.4-1,0.95-1.86,1.65-2.59c0.71-0.73,1.55-1.3,2.55-1.71c0.99-0.41,2.08-0.62,3.27-0.62c1.06,0,2.05,0.19,2.96,0.56
				c0.92,0.37,1.72,1,2.41,1.88l-1.19,0.99c-0.49-0.73-1.1-1.27-1.86-1.61c-0.76-0.34-1.53-0.51-2.32-0.51
				c-1.01,0-1.93,0.18-2.74,0.53c-0.81,0.35-1.51,0.84-2.08,1.45c-0.57,0.62-1.01,1.34-1.32,2.18c-0.31,0.84-0.46,1.74-0.46,2.71
				c0,0.97,0.16,1.87,0.46,2.71c0.31,0.84,0.75,1.56,1.32,2.18c0.57,0.62,1.27,1.1,2.08,1.45c0.81,0.35,1.73,0.53,2.74,0.53
				c0.4,0,0.81-0.05,1.23-0.14c0.42-0.1,0.84-0.24,1.24-0.44c0.4-0.2,0.79-0.45,1.16-0.75c0.37-0.3,0.69-0.66,0.97-1.09
				L521.73,497.95z"/>
			<path class="st4" d="M529.1,484.8h1.45v15.59h-1.45V484.8z"/>
			<path class="st4" d="M538.53,492.6c0-1.19,0.2-2.28,0.59-3.28c0.4-1,0.95-1.86,1.65-2.59c0.71-0.73,1.55-1.3,2.55-1.71
				c0.99-0.41,2.08-0.62,3.27-0.62c1.19,0,2.28,0.2,3.27,0.62c0.99,0.41,1.84,0.98,2.54,1.71c0.7,0.73,1.26,1.59,1.65,2.59
				c0.4,1,0.59,2.09,0.59,3.28c0,1.19-0.2,2.29-0.59,3.29c-0.4,1.01-0.95,1.87-1.65,2.6c-0.7,0.73-1.55,1.29-2.54,1.7
				c-0.99,0.4-2.08,0.6-3.27,0.6c-1.19,0-2.28-0.2-3.27-0.6c-0.99-0.4-1.84-0.97-2.55-1.7c-0.7-0.73-1.26-1.59-1.65-2.6
				C538.73,494.89,538.53,493.79,538.53,492.6z M539.98,492.6c0,0.97,0.16,1.87,0.46,2.71c0.31,0.84,0.75,1.56,1.32,2.18
				c0.57,0.62,1.27,1.1,2.08,1.45c0.81,0.35,1.73,0.53,2.74,0.53c1.01,0,1.93-0.18,2.74-0.53c0.81-0.35,1.51-0.84,2.08-1.45
				c0.57-0.62,1.01-1.34,1.32-2.18c0.31-0.84,0.46-1.74,0.46-2.71c0-0.97-0.16-1.87-0.46-2.71c-0.31-0.84-0.75-1.56-1.32-2.18
				c-0.57-0.62-1.27-1.1-2.08-1.45c-0.81-0.35-1.73-0.53-2.74-0.53c-1.01,0-1.93,0.18-2.74,0.53c-0.81,0.35-1.51,0.84-2.08,1.45
				c-0.57,0.62-1.01,1.34-1.32,2.18C540.13,490.73,539.98,491.63,539.98,492.6z"/>
			<path class="st4" d="M562.61,484.8h1.87l9.49,13.65h0.04V484.8h1.45v15.59h-1.87l-9.49-13.65h-0.05v13.65h-1.45V484.8z"/>
			<path class="st4" d="M589.23,484.8h1.5l6.56,15.59h-1.63l-1.69-4.14h-8.26l-1.76,4.14h-1.52L589.23,484.8z M589.91,486.39
				l-3.63,8.54h7.15L589.91,486.39z"/>
			<path class="st4" d="M604.25,484.8h1.45v14.27h7.27v1.32h-8.72V484.8z"/>
		</g>
		<g>
			<g>
				<path class="st4" d="M195.35,433.07h11.29c1.48,0,2.89,0.14,4.22,0.43c1.33,0.29,2.5,0.77,3.5,1.44c1,0.67,1.8,1.58,2.39,2.72
					c0.59,1.14,0.89,2.56,0.89,4.27c0,2.06-0.53,3.81-1.61,5.25c-1.07,1.44-2.64,2.35-4.7,2.74l7.42,12.32h-7.71l-6.1-11.66h-3.17
					v11.66h-6.43V433.07z M201.77,445.14h3.79c0.58,0,1.19-0.02,1.83-0.06c0.65-0.04,1.23-0.17,1.75-0.37
					c0.52-0.21,0.95-0.53,1.3-0.97c0.34-0.44,0.51-1.06,0.51-1.85c0-0.74-0.15-1.33-0.45-1.77c-0.3-0.44-0.69-0.77-1.16-1.01
					c-0.47-0.23-1-0.39-1.61-0.48c-0.6-0.08-1.19-0.12-1.77-0.12h-4.2V445.14z"/>
				<path class="st4" d="M222.29,433.07h19.82V439h-13.39v5.44h12.65v5.93h-12.65v5.93h14.13v5.93h-20.56V433.07z"/>
				<path class="st4" d="M262.43,440.2c-0.52-0.66-1.23-1.15-2.12-1.46c-0.89-0.32-1.74-0.48-2.53-0.48c-0.47,0-0.95,0.06-1.44,0.17
					s-0.96,0.28-1.4,0.51c-0.44,0.23-0.8,0.54-1.07,0.93c-0.27,0.39-0.41,0.85-0.41,1.4c0,0.88,0.33,1.55,0.99,2.02
					c0.66,0.47,1.49,0.87,2.49,1.19c1,0.33,2.08,0.66,3.23,0.99c1.16,0.33,2.23,0.8,3.24,1.4c1,0.6,1.83,1.41,2.49,2.43
					c0.66,1.02,0.99,2.38,0.99,4.08c0,1.62-0.3,3.03-0.91,4.24s-1.42,2.21-2.45,3.01c-1.03,0.8-2.23,1.39-3.59,1.77
					c-1.36,0.38-2.8,0.58-4.31,0.58c-1.89,0-3.65-0.29-5.27-0.87s-3.13-1.51-4.53-2.8l4.57-5.03c0.66,0.88,1.49,1.56,2.49,2.04
					c1,0.48,2.04,0.72,3.11,0.72c0.52,0,1.05-0.06,1.59-0.19c0.54-0.12,1.02-0.31,1.44-0.56c0.42-0.25,0.77-0.56,1.03-0.95
					s0.39-0.84,0.39-1.36c0-0.88-0.34-1.57-1.01-2.08c-0.67-0.51-1.52-0.94-2.53-1.3c-1.02-0.36-2.12-0.71-3.3-1.07
					c-1.18-0.36-2.28-0.84-3.3-1.44c-1.02-0.6-1.86-1.4-2.53-2.39c-0.67-0.99-1.01-2.29-1.01-3.91c0-1.57,0.31-2.94,0.93-4.12
					c0.62-1.18,1.44-2.17,2.47-2.97c1.03-0.8,2.22-1.39,3.56-1.79c1.34-0.4,2.73-0.6,4.16-0.6c1.65,0,3.24,0.23,4.78,0.7
					c1.54,0.47,2.92,1.25,4.16,2.35L262.43,440.2z"/>
				<path class="st4" d="M277.3,438.75h-8.32v-5.68h23.08v5.68h-8.32v23.49h-6.43V438.75z"/>
				<path class="st4" d="M301.12,433.07h5.32l12.69,29.17h-7.25l-2.51-6.18h-11.33l-2.43,6.18h-7.09L301.12,433.07z M303.59,441.56
					l-3.55,9.07h7.13L303.59,441.56z"/>
				<path class="st4" d="M346.65,450.99c0,1.73-0.26,3.32-0.78,4.78c-0.52,1.46-1.3,2.72-2.33,3.79c-1.03,1.07-2.31,1.91-3.85,2.52
					c-1.54,0.6-3.31,0.91-5.32,0.91c-2.03,0-3.82-0.3-5.36-0.91c-1.54-0.6-2.82-1.44-3.85-2.52c-1.03-1.07-1.81-2.33-2.33-3.79
					c-0.52-1.46-0.78-3.05-0.78-4.78v-17.92h6.43v17.68c0,0.91,0.15,1.74,0.43,2.51c0.29,0.77,0.69,1.44,1.22,2
					c0.52,0.56,1.14,1.01,1.87,1.32c0.73,0.32,1.52,0.47,2.37,0.47c0.85,0,1.63-0.16,2.35-0.47c0.71-0.31,1.33-0.76,1.85-1.32
					c0.52-0.56,0.93-1.23,1.21-2c0.29-0.77,0.43-1.61,0.43-2.51v-17.68h6.43V450.99z"/>
				<path class="st4" d="M352.58,433.07h11.29c1.48,0,2.89,0.14,4.22,0.43c1.33,0.29,2.5,0.77,3.5,1.44c1,0.67,1.8,1.58,2.39,2.72
					c0.59,1.14,0.89,2.56,0.89,4.27c0,2.06-0.53,3.81-1.61,5.25c-1.07,1.44-2.64,2.35-4.7,2.74l7.42,12.32h-7.71l-6.1-11.66h-3.17
					v11.66h-6.43V433.07z M359.01,445.14h3.79c0.58,0,1.19-0.02,1.83-0.06c0.65-0.04,1.23-0.17,1.75-0.37
					c0.52-0.21,0.95-0.53,1.3-0.97c0.34-0.44,0.51-1.06,0.51-1.85c0-0.74-0.15-1.33-0.45-1.77c-0.3-0.44-0.69-0.77-1.16-1.01
					c-0.47-0.23-1-0.39-1.61-0.48c-0.6-0.08-1.19-0.12-1.77-0.12h-4.2V445.14z"/>
				<path class="st4" d="M388.89,433.07h5.32l12.69,29.17h-7.25l-2.51-6.18H385.8l-2.43,6.18h-7.09L388.89,433.07z M391.36,441.56
					l-3.55,9.07h7.13L391.36,441.56z"/>
				<path class="st4" d="M409.82,433.07h8.74l12.4,20.27h0.08v-20.27h6.43v29.17h-8.41l-12.73-20.77h-0.08v20.77h-6.43V433.07z"/>
				<path class="st4" d="M443.4,433.07h9.64c2.34,0,4.55,0.26,6.65,0.78s3.93,1.37,5.5,2.53c1.57,1.17,2.81,2.69,3.73,4.55
					c0.92,1.87,1.38,4.13,1.38,6.8c0,2.37-0.45,4.45-1.34,6.24c-0.9,1.8-2.1,3.31-3.61,4.53c-1.51,1.22-3.25,2.15-5.23,2.78
					c-1.98,0.63-4.05,0.95-6.22,0.95H443.4V433.07z M449.83,456.31h3.34c1.48,0,2.87-0.15,4.14-0.45c1.28-0.3,2.38-0.8,3.32-1.51
					c0.94-0.7,1.67-1.62,2.2-2.76c0.54-1.14,0.8-2.53,0.8-4.18c0-1.43-0.27-2.67-0.8-3.73c-0.53-1.06-1.26-1.93-2.16-2.62
					c-0.91-0.69-1.97-1.2-3.2-1.55c-1.22-0.34-2.5-0.52-3.85-0.52h-3.79V456.31z"/>
				<path class="st4" d="M473.11,447.65c0-2.34,0.39-4.45,1.17-6.35c0.78-1.89,1.88-3.51,3.28-4.84c1.4-1.33,3.06-2.35,4.99-3.07
					c1.92-0.71,4.02-1.07,6.31-1.07c2.28,0,4.38,0.36,6.3,1.07c1.92,0.71,3.59,1.74,4.99,3.07c1.4,1.33,2.49,2.95,3.28,4.84
					c0.78,1.89,1.17,4.01,1.17,6.35s-0.39,4.45-1.17,6.35c-0.78,1.89-1.87,3.51-3.28,4.84c-1.4,1.33-3.06,2.36-4.99,3.07
					c-1.92,0.71-4.02,1.07-6.3,1.07c-2.28,0-4.38-0.36-6.31-1.07c-1.92-0.71-3.59-1.74-4.99-3.07c-1.4-1.33-2.49-2.95-3.28-4.84
					C473.5,452.1,473.11,449.99,473.11,447.65z M479.78,447.65c0,1.37,0.21,2.63,0.64,3.77c0.42,1.14,1.03,2.13,1.83,2.96
					c0.8,0.84,1.75,1.49,2.86,1.96c1.11,0.47,2.36,0.7,3.73,0.7c1.37,0,2.62-0.23,3.73-0.7c1.11-0.47,2.07-1.12,2.87-1.96
					c0.8-0.84,1.41-1.82,1.83-2.96c0.42-1.14,0.64-2.4,0.64-3.77c0-1.35-0.22-2.6-0.64-3.75c-0.43-1.16-1.04-2.15-1.83-2.99
					c-0.8-0.84-1.75-1.49-2.87-1.96c-1.11-0.47-2.35-0.7-3.73-0.7c-1.37,0-2.62,0.23-3.73,0.7c-1.11,0.47-2.07,1.12-2.86,1.96
					c-0.8,0.84-1.41,1.83-1.83,2.99C480,445.06,479.78,446.31,479.78,447.65z"/>
				<path class="st4" d="M518.27,433.07h7.33l7.21,19.12h0.08l7.33-19.12h6.88l-12.03,29.17h-5.15L518.27,433.07z"/>
				<path class="st4" d="M550.08,433.07h6.43v29.17h-6.43V433.07z"/>
				<path class="st4" d="M562.36,433.07H572c2.34,0,4.55,0.26,6.65,0.78s3.93,1.37,5.5,2.53c1.57,1.17,2.81,2.69,3.73,4.55
					c0.92,1.87,1.38,4.13,1.38,6.8c0,2.37-0.45,4.45-1.34,6.24c-0.9,1.8-2.1,3.31-3.61,4.53c-1.51,1.22-3.25,2.15-5.23,2.78
					c-1.98,0.63-4.05,0.95-6.22,0.95h-10.51V433.07z M568.78,456.31h3.34c1.48,0,2.87-0.15,4.14-0.45c1.28-0.3,2.38-0.8,3.32-1.51
					c0.94-0.7,1.67-1.62,2.2-2.76c0.54-1.14,0.8-2.53,0.8-4.18c0-1.43-0.27-2.67-0.8-3.73c-0.53-1.06-1.26-1.93-2.16-2.62
					c-0.91-0.69-1.97-1.2-3.2-1.55s-2.5-0.52-3.85-0.52h-3.79V456.31z"/>
				<path class="st4" d="M603.23,433.07h5.32l12.69,29.17h-7.25l-2.51-6.18h-11.33l-2.43,6.18h-7.09L603.23,433.07z M605.7,441.56
					l-3.55,9.07h7.13L605.7,441.56z"/>
				<path class="st4" d="M638.59,440.2c-0.52-0.66-1.23-1.15-2.12-1.46c-0.89-0.32-1.74-0.48-2.53-0.48c-0.47,0-0.95,0.06-1.44,0.17
					c-0.49,0.11-0.96,0.28-1.4,0.51c-0.44,0.23-0.8,0.54-1.07,0.93c-0.27,0.39-0.41,0.85-0.41,1.4c0,0.88,0.33,1.55,0.99,2.02
					c0.66,0.47,1.49,0.87,2.49,1.19c1,0.33,2.08,0.66,3.23,0.99c1.16,0.33,2.23,0.8,3.24,1.4c1,0.6,1.83,1.41,2.49,2.43
					c0.66,1.02,0.99,2.38,0.99,4.08c0,1.62-0.3,3.03-0.91,4.24s-1.42,2.21-2.45,3.01c-1.03,0.8-2.23,1.39-3.59,1.77
					c-1.36,0.38-2.8,0.58-4.31,0.58c-1.89,0-3.65-0.29-5.27-0.87c-1.62-0.58-3.13-1.51-4.53-2.8l4.57-5.03
					c0.66,0.88,1.49,1.56,2.49,2.04c1,0.48,2.04,0.72,3.11,0.72c0.52,0,1.05-0.06,1.59-0.19c0.54-0.12,1.02-0.31,1.44-0.56
					c0.42-0.25,0.77-0.56,1.03-0.95c0.26-0.38,0.39-0.84,0.39-1.36c0-0.88-0.34-1.57-1.01-2.08c-0.67-0.51-1.52-0.94-2.53-1.3
					c-1.02-0.36-2.12-0.71-3.3-1.07c-1.18-0.36-2.28-0.84-3.3-1.44c-1.02-0.6-1.86-1.4-2.53-2.39c-0.67-0.99-1.01-2.29-1.01-3.91
					c0-1.57,0.31-2.94,0.93-4.12c0.62-1.18,1.44-2.17,2.47-2.97c1.03-0.8,2.22-1.39,3.56-1.79c1.34-0.4,2.73-0.6,4.16-0.6
					c1.65,0,3.24,0.23,4.78,0.7c1.54,0.47,2.92,1.25,4.16,2.35L638.59,440.2z"/>
			</g>
		</g>
	</g>
	<path class="st0" d="M641.71,413.35c-19.79,0-38.88,0-58.27,0c-0.09-1.4-0.24-2.67-0.24-3.94c-0.04-24.68,0.13-49.37-0.15-74.04
		c-0.12-11.21-0.81-22.45-1.81-33.63c-0.52-5.78-2.69-11.35-7.14-15.45c-8.41-7.72-18.3-7.65-28.23-4.11
		c-10.07,3.59-16.09,11.33-17.67,21.77c-1.43,9.47-2.38,19.1-2.45,28.67c-0.16,23.25,0.34,46.52,0.51,69.77
		c0.02,3.58-0.33,7.16-0.52,10.91c-19.5,0-38.69,0-58.17,0c0-58.56,0-117.13,0-175.89c18.54,0,37.14,0,56.4,0
		c0,7.59,0,14.92,0,22.26c0.34,0.09,0.67,0.18,1.01,0.27c1.31-1.64,2.64-3.27,3.95-4.93c13.66-17.34,32.1-23.84,53.43-22.82
		c16.01,0.77,30.3,6.33,41.41,18.38c8.84,9.59,13.64,21.25,15.85,33.93c1.12,6.43,1.95,13,1.99,19.51
		c0.2,34.4,0.11,68.81,0.11,103.21C641.71,409.16,641.71,411.1,641.71,413.35z"/>
</g>
</svg>
