<svg xmlns="http://www.w3.org/2000/svg" width="125.597" height="66.66" viewBox="0 0 125.597 66.66">
  <g id="ibntv" transform="translate(-22.208 -438.984)">
    <g id="Grupo_8" data-name="Grupo 8" transform="translate(37.07 438.984)">
      <path id="Caminho_30" data-name="Caminho 30" d="M75.261,495.107q0-28.061,0-56.123c4.067.009,8.135,0,12.2.005-.005,7.688.011,15.375-.01,23.063l.182-.064a16.1,16.1,0,0,1,4.509-3.429,14.04,14.04,0,0,1,6.089-1.461,17.037,17.037,0,0,1,7.7,1.459,16.745,16.745,0,0,1,5.453,4.028,20.6,20.6,0,0,1,4.866,11.67,23.358,23.358,0,0,1-1.573,10.927,17.512,17.512,0,0,1-8.127,9.111,16.179,16.179,0,0,1-7.827,1.832,16.461,16.461,0,0,1-6.87-1.456,11.77,11.77,0,0,1-4.668-3.593,6.263,6.263,0,0,0-.681-.845c-.044,1.624-.009,3.251-.021,4.875Q80.874,495.087,75.261,495.107Zm16.127-26.822a9.873,9.873,0,0,0-3.97,11.254,9.164,9.164,0,0,0,5.844,6.114,9.317,9.317,0,0,0,5.658-.145,8.623,8.623,0,0,0,4.769-4.583c.164-.413.31-.833.446-1.255a11.6,11.6,0,0,0,.246-5.4c-.092-.424-.211-.841-.32-1.26a9.392,9.392,0,0,0-1.725-3.062,8.333,8.333,0,0,0-5.215-2.824A8.577,8.577,0,0,0,91.388,468.285Z" transform="translate(-75.261 -438.984)" fill="#fff"/>
    </g>
    <path id="Caminho_31" data-name="Caminho 31" d="M23.924,443.668a7.518,7.518,0,0,1,4.954-2.3,7.216,7.216,0,0,1,5.5,2.145,6.452,6.452,0,0,1,1.842,4.636,6.6,6.6,0,0,1-2.172,4.778,7.332,7.332,0,0,1-9.61.027,6.985,6.985,0,0,1-1.859-2.694q-.057-.192-.118-.38a9.5,9.5,0,0,1-.256-2.108,10.49,10.49,0,0,1,.366-1.861A6.543,6.543,0,0,1,23.924,443.668Z" transform="translate(0 -1.711)" fill="#fff"/>
    <path id="Caminho_32" data-name="Caminho 32" d="M247.8,503.784a15.319,15.319,0,0,1,6.77.478,12,12,0,0,1,6.184,4.538,13.994,13.994,0,0,1,2.082,4.694,23.814,23.814,0,0,1,.644,4.818q.008,11.655,0,23.309-6.147,0-12.293,0,0-9.749,0-19.5a17.284,17.284,0,0,0-.424-4.444c-.085-.244-.168-.485-.241-.73a4.778,4.778,0,0,0-2.826-3.007,6.493,6.493,0,0,0-2.495-.276,5.669,5.669,0,0,0-4.391,2.357,9.355,9.355,0,0,0-1.6,5.621q0,9.838,0,19.677a.235.235,0,0,1-.268.291c-4.009.013-8.02-.007-12.031.011q.011-18.5,0-37c3.142.029,6.284,0,9.426.012.8.007,1.606-.026,2.406.032.007,1.723-.029,3.448.017,5.171a12.455,12.455,0,0,1,9.031-6.054Z" transform="translate(-147.363 -46.518)" fill="#fff"/>
    <path id="Caminho_33" data-name="Caminho 33" d="M25.539,507.233c3.435.016,6.872,0,10.308.009.632,0,1.263-.029,1.893.034q-.005,18.449,0,36.9a15.338,15.338,0,0,1-1.9.049c-3.433.006-6.867-.011-10.3.01Q25.535,525.733,25.539,507.233Z" transform="translate(-2.397 -49.131)" fill="#fff"/>
    <text id="tv" transform="translate(111.805 494.644)" fill="#0b8cbb" font-size="43" font-family="SegoeUI, Segoe UI"><tspan x="0" y="0">tv</tspan></text>
  </g>
</svg>
